<?xml version="1.0" encoding="iso-8859-1"?>
<svg fill="#000000" height="800px" width="800px" version="1.1" id="Capa_1" xmlns="http://www.w3.org/2000/svg" xmlns:xlink="http://www.w3.org/1999/xlink"
     viewBox="0 0 29.807 29.807" xml:space="preserve">
<g>
	<path d="M29.453,13.307c-0.376-0.549-0.997-0.877-1.662-0.877h-2.486C23.733,7.359,19,3.666,13.419,3.666
		c-0.496,0-0.984,0.037-1.467,0.094c2.985,0.353,5.645,1.767,7.601,3.854c1.657,1.2,2.946,2.869,3.676,4.816h-0.856
		c0.195,0.631,0.329,1.287,0.422,1.955l4.684,0.001c0.2,0,0.336,0.202,0.261,0.387l-1.434,3.571
		c-0.043,0.107-0.146,0.177-0.261,0.177h-3.355c-0.132,0.668-0.323,1.321-0.563,1.955h0.823c-0.608,1.319-1.482,2.491-2.555,3.447
		c-0.125,0.112-0.276,0.176-0.437,0.216c-0.143,0.169-0.28,0.342-0.434,0.504c-0.421,0.444-0.952,0.756-1.525,0.946
		c0.422,0.294,0.91,0.491,1.432,0.539c0.092,0.008,0.183,0.012,0.273,0.012c0.735,0,1.442-0.269,1.992-0.758
		c1.517-1.353,2.648-3.047,3.35-4.907h1.189c0.833,0,1.58-0.512,1.88-1.288l1.556-4.015C29.911,14.552,29.829,13.855,29.453,13.307z
		"/>
    <path d="M20.972,16.107c0-5.792-4.694-10.486-10.485-10.486S0,10.315,0,16.107c0,2.788,1.091,5.316,2.867,7.192
		c0.328,0.347,0.784,0.542,1.259,0.542c0.029,0,0.059-0.001,0.087-0.003c0.507-0.025,0.976-0.27,1.287-0.67l4.166-5.36
		c0.196-0.253,0.499-0.401,0.82-0.401c0.32,0,0.623,0.148,0.819,0.401l4.166,5.36c0.309,0.4,0.779,0.644,1.285,0.668
		c0.029,0.001,0.058,0.002,0.086,0.002c0.476,0,0.934-0.194,1.262-0.54C19.88,21.423,20.972,18.895,20.972,16.107z"/>
</g>
</svg>